<svg width="68" height="81" viewBox="0 0 68 81" fill="none" xmlns="http://www.w3.org/2000/svg">
<g filter="url(#filter0_dd)">
<mask id="path-1-outside-1" maskUnits="userSpaceOnUse" x="16" y="8" width="36" height="49" fill="black">
<rect fill="white" x="16" y="8" width="36" height="49"/>
<path fill-rule="evenodd" clip-rule="evenodd" d="M39.4819 41.0362C45.6185 38.7984 50 32.9109 50 26C50 17.1634 42.8366 10 34 10C25.1634 10 18 17.1634 18 26C18 32.9109 22.3815 38.7984 28.5181 41.0362L34 52L39.4819 41.0362Z"/>
</mask>
<path fill-rule="evenodd" clip-rule="evenodd" d="M39.4819 41.0362C45.6185 38.7984 50 32.9109 50 26C50 17.1634 42.8366 10 34 10C25.1634 10 18 17.1634 18 26C18 32.9109 22.3815 38.7984 28.5181 41.0362L34 52L39.4819 41.0362Z" fill="currentColor"/>
<path d="M39.4819 41.0362L38.7967 39.1573L38.049 39.4299L37.693 40.1418L39.4819 41.0362ZM28.5181 41.0362L30.307 40.1418L29.951 39.4299L29.2033 39.1573L28.5181 41.0362ZM34 52L32.2112 52.8944L34 56.4721L35.7889 52.8944L34 52ZM48 26C48 32.0439 44.1692 37.1981 38.7967 39.1573L40.1671 42.9152C47.0679 40.3987 52 33.7779 52 26H48ZM34 12C41.732 12 48 18.268 48 26H52C52 16.0589 43.9411 8 34 8V12ZM20 26C20 18.268 26.268 12 34 12V8C24.0589 8 16 16.0589 16 26H20ZM29.2033 39.1573C23.8308 37.1981 20 32.0439 20 26H16C16 33.7779 20.9321 40.3987 27.8329 42.9152L29.2033 39.1573ZM35.7889 51.1056L30.307 40.1418L26.7293 41.9307L32.2112 52.8944L35.7889 51.1056ZM37.693 40.1418L32.2112 51.1056L35.7889 52.8944L41.2707 41.9307L37.693 40.1418Z" fill="white" mask="url(#path-1-outside-1)"/>
<path fill-rule="evenodd" clip-rule="evenodd" d="M33.4671 18.3355C33.7927 18.1304 34.2073 18.1304 34.5329 18.3355L40.5951 22.1537C41.4437 22.6881 41.0651 23.9998 40.0622 23.9998H27.9378C26.9349 23.9998 26.5563 22.6881 27.4049 22.1537L33.4671 18.3355ZM29 26.9998C29 26.4475 29.4477 25.9998 30 25.9998C30.5523 25.9998 31 26.4475 31 26.9998V28.9998C31 29.5521 30.5523 29.9998 30 29.9998C29.4477 29.9998 29 29.5521 29 28.9998V26.9998ZM34 25.9998C33.4477 25.9998 33 26.4475 33 26.9998V28.9998C33 29.5521 33.4477 29.9998 34 29.9998C34.5523 29.9998 35 29.5521 35 28.9998V26.9998C35 26.4475 34.5523 25.9998 34 25.9998ZM37 26.9998C37 26.4475 37.4477 25.9998 38 25.9998C38.5523 25.9998 39 26.4475 39 26.9998V28.9998C39 29.5521 38.5523 29.9998 38 29.9998C37.4477 29.9998 37 29.5521 37 28.9998V26.9998ZM28 31.9998C27.4477 31.9998 27 32.4475 27 32.9998C27 33.5521 27.4477 33.9998 28 33.9998H40C40.5523 33.9998 41 33.5521 41 32.9998C41 32.4475 40.5523 31.9998 40 31.9998H28Z" fill="white"/>
</g>
<defs>
<filter id="filter0_dd" x="0" y="0" width="68" height="81" filterUnits="userSpaceOnUse" color-interpolation-filters="sRGB">
<feFlood flood-opacity="0" result="BackgroundImageFix"/>
<feColorMatrix in="SourceAlpha" type="matrix" values="0 0 0 0 0 0 0 0 0 0 0 0 0 0 0 0 0 0 127 0"/>
<feOffset dy="8"/>
<feGaussianBlur stdDeviation="8"/>
<feColorMatrix type="matrix" values="0 0 0 0 0.027451 0 0 0 0 0.109804 0 0 0 0 0.0313726 0 0 0 0.08 0"/>
<feBlend mode="normal" in2="BackgroundImageFix" result="effect1_dropShadow"/>
<feColorMatrix in="SourceAlpha" type="matrix" values="0 0 0 0 0 0 0 0 0 0 0 0 0 0 0 0 0 0 127 0"/>
<feOffset/>
<feGaussianBlur stdDeviation="4"/>
<feColorMatrix type="matrix" values="0 0 0 0 0.027451 0 0 0 0 0.109804 0 0 0 0 0.0313726 0 0 0 0.06 0"/>
<feBlend mode="normal" in2="effect1_dropShadow" result="effect2_dropShadow"/>
<feBlend mode="normal" in="SourceGraphic" in2="effect2_dropShadow" result="shape"/>
</filter>
</defs>
</svg>
