<svg width="1920" height="293" viewBox="0 0 1920 293" fill="none" xmlns="http://www.w3.org/2000/svg">
<path d="M0 292L37.95 244.052C75.9 196.103 153.525 100.207 229.425 58.252C307.05 16.2972 382.95 28.2843 460.575 22.2908C536.475 16.2972 614.1 -7.67694 690 4.31014C765.9 16.2972 843.525 64.2455 919.425 106.2C997.05 148.155 1072.95 184.116 1150.58 184.116C1226.48 184.116 1304.1 148.155 1380 160.142C1455.9 172.129 1533.53 232.065 1609.43 232.065C1687.05 232.065 1762.95 172.129 1840.58 172.129C1916.48 172.129 1994.1 232.065 2032.05 262.032L2070 292" stroke="#CEE6CA" stroke-width="2"/>
</svg>
